<?xml version="1.0" encoding="utf-8"?>
<svg xmlns="http://www.w3.org/2000/svg" viewBox="0 0 64 64" width="64px" height="64px">
  <path style="stroke-width: 4; stroke-linecap: round; fill: none;" d="M 24.138 54.72 C 26.625 45.198 28.491 26.027 20.803 12.482"/>
  <path d="M 22.172 54.352 C 22.063 55.058 22.339 55.769 22.896 56.216 C 23.453 56.663 24.206 56.779 24.872 56.52 C 25.538 56.261 26.015 55.666 26.123 54.96 C 26.123 54.96 26.112 55.032 26.123 54.96 C 26.123 54.96 27.319 49.668 27.732 46.248 C 28.144 42.841 28.379 38.985 28.285 35.062 C 28.098 27.234 26.501 18.586 22.542 11.495 C 21.997 10.534 20.776 10.198 19.815 10.743 C 18.854 11.288 18.518 12.509 19.063 13.47 C 22.792 19.924 24.106 27.634 24.286 35.158 C 24.376 38.911 24.158 42.48 23.761 45.769 C 23.563 47.409 23.326 48.927 23.058 50.359 C 22.791 51.786 22.172 54.352 22.172 54.352 C 22.179 54.317 22.172 54.352 22.172 54.352 Z" style="fill: rgb(255, 255, 255); stroke: rgb(0, 0, 0);"/>
  <path style="stroke-width: 4; stroke-linecap: round; fill: none;" d="M 16.947 12.124 C 16.947 12.124 19.331 8.379 28.386 7.226 C 35.78 6.286 41.678 8.212 43.887 14.16 C 47.569 24.076 27.394 31.574 27.35 31.943 C 27.261 32.688 48.574 35.347 49.232 47.367 C 49.839 58.455 14.966 60.549 14.703 50.264 C 14.52 43.095 23.853 43.332 23.853 43.332" id="object-0"/>
  <path d="M 15.873 13.811 C 14.941 13.218 14.667 11.982 15.26 11.05 C 15.26 11.05 18.362 6.85 28.134 5.242 C 32.031 4.767 35.882 5.035 38.846 6.262 C 41.862 7.511 44.417 10.12 45.762 13.464 C 46.716 16.529 46.093 19.783 44.537 22.164 C 43.011 24.499 40.534 26.637 38.15 28.279 C 35.761 29.924 34.559 30.571 33.524 31.334 C 32.811 31.801 35.979 32.408 38.783 33.582 C 41.577 34.752 44.616 36.407 46.888 38.529 C 49.178 40.668 50.923 43.792 51.229 47.258 C 51.24 49.057 50.576 51.021 49.483 52.361 C 48.425 53.658 46.764 54.862 45.025 55.732 C 41.624 57.433 36.926 58.502 32.438 58.825 C 27.948 59.148 23.192 58.759 19.674 57.611 C 17.87 57.022 16.1 56.1 14.929 55.015 C 13.707 53.883 12.88 52.459 12.705 50.315 C 12.735 48.116 13.772 46.171 14.875 44.991 C 16.143 43.633 18.599 42.104 21.088 41.404 C 21.908 41.174 25.571 40.249 25.735 42.65 C 25.85 44.337 24.788 44.418 23.925 44.728 C 16.371 47.444 16.582 48.828 16.704 50.213 C 16.944 51.86 19.424 53.321 20.917 53.809 C 23.993 54.814 27.966 55.137 32.152 54.836 C 36.339 54.535 40.262 53.644 43.237 52.156 C 44.686 51.431 47.176 49.831 47.237 47.477 C 47.214 44.933 46.048 43.217 44.16 41.453 C 42.253 39.672 39.866 38.316 37.241 37.272 C 34.442 36.159 28.709 34.982 28.244 31.706 C 27.786 28.478 33.528 26.15 35.729 24.635 C 37.934 23.116 39.968 21.847 41.191 19.976 C 42.384 18.151 42.433 16.221 42.015 14.856 C 41.151 12.251 39.652 10.924 37.319 9.958 C 34.933 8.97 32.139 8.745 28.642 9.21 C 20.304 9.908 17.733 15.244 15.877 13.811 L 15.873 13.811 Z" style="fill: rgb(255, 255, 255); stroke: rgb(0, 0, 0);"/>
</svg>